<svg id="vector" xmlns="http://www.w3.org/2000/svg" width="48" height="48" viewBox="0 0 48.0 48.0"><path fill="#000000FF" d="M9,12v14h10V11H9z M11.7,16.3c-0.7,0,-1.3,-0.6,-1.3,-1.3s0.6,-1.3,1.3,-1.3S13,14.3,13,15S12.4,16.3,11.7,16.3z" id="path_0"/><path fill="#000000FF" d="M5.7,20.1l1.6,-3.0l-1.6,-3.0l4.4,3.0z" id="path_1"/><path fill="#000000FF" d="M19.0,6.0l-2.3,2.3l-2.7,-2.6l-2.7,2.6l-2.3,-2.3l0.0,4.0l10.0,0.0z" id="path_2"/><path fill="#000000FF" d="M9,25c0,8.3,6.7,15,15,15s15,-6.7,15,-15H9z M29.9,31.5h-11v-1h12L29.9,31.5z M31.9,29.5h-13v-1h14L31.9,29.5z M33.9,27.5   h-15v-1h16L33.9,27.5z" id="path_3"/><path fill="#000000FF" d="M27.0,38.6h2.0v6.0h-2.0z" id="path_4"/><path fill="#000000FF" d="M17.4,44.6l-2.1999998,0.0l4.4000006,-6.0l2.1999989,0.0z" id="path_5"/></svg>